#!OML:ASF Y:\EmotionMaleHayes\Project 1\Capture day 1\Session 1\Male1.ASF
:FULLY-SPECIFIED
:DEGREES
443
root 2.85748 15.6333 10.0427 18.7233 137.252 22.2365
lowerback 14.8749 2.89312 7.42474
upperback 6.14658 5.50772 1.63967
thorax -1.27116 3.10265 -3.28578
lowerneck -21.2176 -2.05361 3.83077
upperneck 23.7391 -3.54973 -1.19792
head 11.1147 -1.28921 -1.60305
rclavicle 1.15295e-014 1.66979e-014
rhumerus 5.44881 29.728 -62.2585
rradius 70.6723
rwrist -14.0149
rhand -23.6775 -32.4882
rfingers 7.12502
rthumb 2.78881 -62.4497
lclavicle 1.15295e-014 1.66979e-014
lhumerus -58.0458 -21.7526 76.5199
lradius 35.6008
lwrist 13.5733
lhand -30.3919 -25.2893
lfingers 7.12502
lthumb -3.69588 4.65842
rfemur 20.5741 -2.23451 23.0394
rtibia 23.1267
rfoot -11.2469 -6.52977
rtoes -27.1618
lfemur -41.2103 17.1068 -18.7445
ltibia 42.9824
lfoot -20.222 15.8382
ltoes 9.7174
444
root 3.00988 15.6377 9.84419 17.5174 137.26 20.4536
lowerback 14.7006 2.80212 6.21156
upperback 6.35809 5.18621 1.26449
thorax -1.06702 2.93982 -2.94037
lowerneck -21.5695 -1.95951 4.10997
upperneck 23.7481 -3.52218 -1.27132
head 11.1795 -1.26327 -1.67868
rclavicle 6.87795e-014 0
rhumerus 4.88766 29.9108 -62.7685
rradius 72.1922
rwrist -13.8999
rhand -23.7912 -32.3679
rfingers 7.12502
rthumb 2.679 -62.3308
lclavicle 6.87795e-014 0
lhumerus -57.0474 -21.459 77.1372
lradius 34.1332
lwrist 12.8905
lhand -29.8599 -25.3894
lfingers 7.12502
lthumb -3.18218 4.56663
rfemur 19.2288 -2.24628 21.3709
rtibia 26.4191
rfoot -8.241 -6.35053
rtoes -17.9653
lfemur -40.5432 17.4512 -20.4898
ltibia 43.1873
lfoot -19.7302 14.4442
ltoes 16.0701
445
root 3.14648 15.6596 9.65452 16.8091 137.508 19.5444
lowerback 14.97 2.62755 5.85818
upperback 6.4656 4.92681 0.994433
thorax -1.12729 2.81344 -3.0058
lowerneck -22.1038 -1.9717 4.18258
upperneck 23.9694 -3.66288 -1.05197
head 11.3658 -1.28435 -1.64544
rclavicle -1.20861e-013 1.11319e-014
rhumerus 3.76544 29.6147 -64.0481
rradius 73.4999
rwrist -13.3651
rhand -23.5252 -32.0206
rfingers 7.12502
rthumb 2.9359 -61.9802
lclavicle -1.20861e-013 1.11319e-014
lhumerus -55.9525 -21.4638 77.9515
lradius 32.6192
lwrist 11.8683
lhand -29.9033 -25.5116
lfingers 7.12502
lthumb -3.22403 4.44379
rfemur 17.4529 -2.20494 20.6297
rtibia 30.1779
rfoot -4.54479 -6.89769
rtoes -7.81122
lfemur -39.725 17.7773 -21.3297
ltibia 43.4253
lfoot -20.0319 14.2383
ltoes 14.1578
446
root 3.27774 15.6919 9.46685 16.3871 137.84 19.1768
lowerback 15.3385 2.38569 5.8989
upperback 6.62013 4.65658 0.878484
thorax -1.1707 2.69445 -3.13034
lowerneck -22.5505 -2.02407 4.02813
upperneck 24.0097 -3.81417 -0.713714
head 11.4751 -1.32203 -1.52836
rclavicle -5.04913e-014 5.56597e-015
rhumerus 2.66632 29.5152 -65.2904
rradius 74.6049
rwrist -12.9927
rhand -23.2935 -31.5757
rfingers 7.12502
rthumb 3.15964 -61.532
lclavicle -5.04913e-014 5.56597e-015
lhumerus -54.6323 -21.2924 78.795
lradius 31.1018
lwrist 10.9875
lhand -29.6864 -26.3022
lfingers 7.12502
lthumb -3.01456 3.65622
rfemur 15.5489 -1.96981 20.5126
rtibia 33.9136
rfoot -0.960729 -7.82668
rtoes 2.00943
lfemur -38.6407 18.0338 -21.5812
ltibia 43.4643
lfoot -20.2885 14.248
ltoes 12.4845
447
root 3.4028 15.7246 9.26508 15.4135 138.151 17.9861
lowerback 15.5717 2.14171 5.39874
upperback 6.79412 4.29045 0.706291
thorax -1.16998 2.51819 -2.98678
lowerneck -22.8535 -2.04098 3.90259
upperneck 24.0065 -3.83933 -0.643053
head 11.5358 -1.338 -1.49143
rclavicle 9.74045e-014 7.95139e-016
rhumerus 1.86491 30.3166 -65.5438
rradius 75.6673
rwrist -13.4001
rhand -23.3581 -31.5279
rfingers 7.12502
rthumb 3.09729 -61.4851
lclavicle 9.74045e-014 7.95139e-016
lhumerus -53.2077 -20.9634 79.7312
lradius 29.6969
lwrist 10.0712
lhand -29.1116 -27.1875
lfingers 7.12502
lthumb -2.4595 2.77808
rfemur 13.7278 -1.817 19.5882
rtibia 37.4008
rfoot 2.66889 -8.44743
rtoes 9.98656
lfemur -37.1584 17.9002 -22.5842
ltibia 43.0227
lfoot -20.9267 13.5636
ltoes 13.4049
